<?xml version="1.0" encoding="utf-8"?>
<!-- Generator: Adobe Illustrator 28.2.0, SVG Export Plug-In . SVG Version: 6.00 Build 0)  -->
<svg version="1.1" id="Layer_1" xmlns="http://www.w3.org/2000/svg" xmlns:xlink="http://www.w3.org/1999/xlink" x="0px" y="0px"
	 viewBox="0 0 278.1 84.4" style="enable-background:new 0 0 278.1 84.4;" xml:space="preserve">
<style type="text/css">
    .st0{fill:#fff;}
    .st1{font-family:'Roboto-Regular';}
    .st2{font-size:8.3018px;}
    .st3{fill:#00AEEF;}
    .st4{fill:#EC008C;}
    .st5{fill:#FFF200;}
    .st6{fill:#231F20;}
    @media (prefers-color-scheme: dark) {
        .st0{fill:#000;}
    }
    @media (prefers-color-scheme: light) {
        .st0{fill:#fff;}
    }
</style>

<g>
	<path class="st0" d="M113,31.5c0.6,0.8,0.8,1.4,1,2.3c0.2,0.9-0.1,2.2-1,3.8c-0.6,1-2.6,3.3-5.1,5.7c-2.5,2.4-5.7,5.1-7.3,6.6
		c-1.7,1.4-3.9,3.1-4.9,3.8c-1.2,0.8-3,2.2-3,2.2s-2.3,1.1-1.9,2.4c-0.4-1.3,1-2.3,1-2.3s2-1.4,3.2-2.3c1-0.7,3.6-2.8,5.2-4.2
		c1.7-1.4,4.8-4.1,7.3-6.5c3.3-3.2,4.6-4.9,5.2-5.8c0.6-0.9,1-2.1,1.1-3.1C113.7,33.8,113.6,32.3,113,31.5"/>
	<g>
		<path class="st0" d="M278.1,19.7c-0.1,0.3-1.3,1.8-2,2.6c-0.7,0.8-1,1.5-1.8,1.6c-1.1,0.2-4.6,0.1-8.6,0.5
			c-3.5,0.3-12.5,1-21.9,3.1c-9.4,2.1-13.1,3.1-20.8,6c-6.5,2.5-11,5.6-14.8,8.1c-0.8,0.5-3.2,2.3-5.5,3.3c-0.8,0.3-2.5,1-4.2,0.3
			c1.2,0.9,3.1,0.5,4.4,0.1c2.2-0.8,4.8-2.5,5.5-3l0.1-0.1c3.8-2.4,8.3-5.5,14.8-8c7.7-2.9,11.7-4.1,21.1-6.2s17.9-2.6,22.1-3
			c3.5-0.3,7-0.4,8.1-0.3c0.5,0,1.1-0.9,1.6-1.9C276.8,21.8,277.8,20.1,278.1,19.7"/>
		<path class="st0" d="M25.6,72.4c0.4,0.1,0.9,0.1,1.2-0.2c0.4-0.3,0.8-0.9,0.9-1.4c0.2-0.6,0.6-1.8,0.8-2.3c0.2-0.5,7.3-7.7,9-9.8
			c2.4-3.1,5.3-6.9,7-9.2c1.7-2.3,1.6-2.2,2.9-3.4c1-0.9,2.5-2.3,5.6-3.6c3.8-1.6,8.3-2.1,11.2-2.3c5.8-0.5,10.9,0.2,13.3,1.2
			c-3.8-0.8-6.3-1.2-13.3-0.8c-2.9,0.2-6.8,0.7-10.3,2.2c-3.6,1.5-4.1,2.2-4.9,3c-1.1,0.9-1.4,0.8-3,3.1c-1.7,2.3-4,5.5-6.5,8.6
			C37.7,59.7,29.3,68.5,29.2,69c-0.2,0.5-0.5,1.4-0.8,1.9c-0.3,0.6-0.8,1.2-1.2,1.4C26.8,72.6,26.2,72.6,25.6,72.4L25.6,72.4"/>
		<path class="st0" d="M72.7,22.6c-0.1-0.5,0-1.2-2.5-1.3c-2.5-0.1-7.5,0.3-12.8,1.4c-4.2,0.8-9.7,2.5-13.6,4.2
			c-4.2,1.8-6.8,3.2-8.5,4.8c-1.7,1.6-3.8,3.7-4.5,4.3c-0.6,0.6-1.8,0.7-2.3,0.4c0.9,0.3,1.8-0.4,2.5-1c0.7-0.7,2.1-2.3,3.8-3.9
			s4.1-3.1,8.3-4.9c3.9-1.7,8.9-3.4,13.1-4.3c4.9-1,11.2-1.7,13.9-1.6c2.5,0.2,2.1,0.3,2.5,0.9L72.7,22.6"/>
		<path class="st0" d="M5,83.4c0.4,0.2,0.8,0.4,1.2,0.5c1.8,0.6,4.3,0.7,10.2-0.3c6.6-1.1,19-4.6,21.2-5.2c3.9-1.2,11.4-3.9,16.2-6
			c4.2-1.8,10.2-4.5,13.4-6.3c3.5-1.9,9.9-5.9,13.9-10.4c3.4-3.8,4.7-8.4,4.8-9.4c0.1-1.5-1.1-3.7-2.3-5.6l-0.3-0.3
			c1.2,1.9,2,4.8,2,5.7c0,1-1.4,5.8-5.2,9.8c-3.4,3.5-7.4,6.2-11.2,8.6c-1.8,1.2-10.4,5.2-15.4,7.4c-5.3,2.2-13.3,5.2-16.8,6.2
			c-3,0.9-13.5,4-20.1,5C10.6,83.8,7.8,84.6,5,83.4L5,83.4"/>
		<path class="st0" d="M113,31.5c0.6,0.8,0.8,1.4,1,2.3c0.2,0.9-0.1,2.2-1,3.8c-0.6,1-2.6,3.3-5.1,5.7c-2.5,2.4-5.7,5.1-7.3,6.6
			c-1.7,1.4-3.9,3.1-4.9,3.8c-1.2,0.8-3,2.2-3,2.2s-2.3,1.1-1.9,2.4c-0.4-1.3,1-2.3,1-2.3s2-1.4,3.2-2.3c1-0.7,3.6-2.8,5.2-4.2
			c1.7-1.4,4.8-4.1,7.3-6.5c3.3-3.2,4.6-4.9,5.2-5.8c0.6-0.9,1-2.1,1.1-3.1C113.7,33.8,113.6,32.3,113,31.5L113,31.5z"/>
		<path class="st0" d="M163.5,41.5c0.1-0.4,0.2-0.8,0.3-1.2c0.3-1,1.9-5,3.1-7.5c1.3-2.4,4.5-8.3,6.1-11c2-3.4,6.6-10.6,6.8-11.1
			c0.4-0.8,0.6-1.9,1-4c0.3-1.7,0.7-4,0.9-5c0.2-1,0.2-1.8-0.1-1.7c0.3-0.3,0.4,0.7,0.2,1.6c-0.2,1.1-0.1,1.6-0.5,3.7
			c-0.3,1.4-0.6,5-1.1,5.6c-0.3,0.5-3.1,4.8-5.2,8.2c-1.6,2.7-5.5,9.5-6.8,11.9c-1.3,2.4-2,3.6-2.6,5.2
			C165.4,37.4,163.6,40.6,163.5,41.5"/>
		<path class="st0" d="M69.6,33.5c4.9-3.4,9.3-6.4,9.5-10.7c0-0.5-0.9-3.2-1.5-3.8c0.8,0.7,2.1,3.2,2.1,3.6
			c-0.1,1.8-1.1,3.4-2.1,4.6C76,29.3,71.6,32.6,69.6,33.5"/>
		<path class="st0" d="M55,28.8c0.4,0.9,1.4,2.8,1.2,3.6c-0.2,0.8-3,3.7-3,3.7c0,0,2.3-2.6,2.6-3.8C55.9,31.4,55.3,30,55,28.8"/>
	</g>
	<g>
		<path class="st0" d="M272.2,18.6c-1.9,0-7.9,0.5-10,0.8c-2.1,0.2-15.5,2.1-20.9,3.3c-6.3,1.3-12.9,3.1-18.7,5.3
			c-4,1.5-11.6,5.3-15.4,7.7c-1.5,1-2.8,1.8-3.7,2.4c0.6-1.2,1.1-2.2,1.5-2.9c2-3.4,4.7-7.6,5-8c0.1-0.2-0.1-1.2-0.1-1.2
			c-0.7-0.8-2.1-1.9-1.9-2.9c0.3-1.4-0.6-1.9-1.1-2.7c0.4,0.7,1,1.5,0.8,2.5c-0.2,1.5,1.2,2.2,1.8,3.2c0.1,0.1,0.1,0.8,0.1,0.8
			c-0.3,0.5-4.2,6.3-6.5,10.7c-0.1,0.2-0.3,0.6-0.4,1c-0.9,0.6-1.4,0.9-1.6,1c-0.4,0.1-0.2-1-0.1-1.3c0.4-1,1.5-3.2,3.4-6.3
			c1.7-2.8,1.6-2.7,3.3-4.8v-1c-1.8-0.7-1.6-3-1.5-3.7c0.2-0.7-0.7-2.3-1.1-2.5c-0.5-0.2-0.8-0.2-2,0.9c-1.3,1.2-2.6,2.6-6,5.6
			c-3.4,3-5.5,4.7-7.1,6.2c-2.9,2.6-8.1,6.6-9.2,7.4c-2.4,1.7-4.6,2.8-5.6,2.9c-0.1,0-0.1,0-0.1,0l0,0c0.6-0.7,12.4-10.8,17.1-19
			c0.7-1.2,1.1-3.1,0.2-4.3c0.6,1.6-0.1,3.3-0.5,4.1c-4.9,8.5-16.9,18.3-17.4,19l-0.1,0.1c-0.4-0.3-0.5-0.9-0.5-1.1
			c0-0.4,0.2-0.9,0.2-0.9s1.1-1,1.9-1.7c1.3-1.1,3.8-3.4,5.1-4.8c1.6-1.7,3.8-4.1,5.7-6.4c1.9-2.3,3.1-4.5,3.5-5.4
			c0.4-0.9,0.5-1.9,0.3-2.6c-0.1-0.3-0.2-1.5-2-1.7c-1.3-0.2-2.9,0-6.9,2.9c-4,3-6.2,6.7-7.8,9.3c-1.6,2.6-2.5,6.2-2.7,8
			c0,0-0.2,0.6-1.6,1.7c-2.1,1.8-2.9,2.5-4.1,3.1c-2.4,1.2-3.3,0.6-3.8,0.2c-0.6-0.4-0.4-1.4-0.3-1.9c0.1-0.7,1.6-4.6,2.9-7.1
			c1.3-2.5,5-9.3,6.6-12.1c2.1-3.5,6.7-10.8,7-11.3c0.7-1.3,0.5-1.5,1-3.2c0.5-1.7,1-4.8,1.2-5.8c0.2-1-0.1-1.4-0.4-1.1
			s-3,4.1-5,7.4c-2.1,3.2-5.3,8.9-7.2,12.2c-1.9,3.3-2.9,5.3-3.5,5.6c-0.6,0.3,0-1.9-2.6-1.7c-1.8,0.2-5.7,2.8-9.2,5.2
			c-3.5,2.3-7.1,4.9-9.4,6.9c-2.1,1.8-7.2,7.1-9,8.7c0.1-0.2,0.2-0.3,0.2-0.4c0.4-0.8,2.1-3.7,3.4-5.7c1.2-2,4.2-6.2,5.1-7.5
			c1.1-1.7,1.4-2.4,0.4-3.9c-0.8-1.3-1.3-1.8-1.9-1.9c0.6,0.1,1.1,1,1.5,1.9c0.8,1.7,0.5,2.2-0.9,4.3c-0.9,1.4-3.2,5-4.5,7
			c-1.2,2-2.6,4.5-3,5.3c-0.1,0.2-0.3,0.6-0.4,1c-0.1,0.2-0.3,0.3-0.4,0.3c-1,0.9-2.2,2.2-2.4,2c-0.2-0.2,0.5-1.4,0.8-2.3
			s2.1-4,3.3-6.1c1.2-2.1,4.4-7.3,5.3-8.8c0.9-1.5,0.8-1.9,0.2-3.4s-1.5-1.3-2.4-1c-0.9,0.3-3.5,2.5-5.4,4s-4.2,3.5-4.9,4.1
			c-0.8,0.5-0.5-0.6-0.6-1c0-0.4,0-1.1-0.7-1.8c-0.4-0.3-1.3-0.3-2-0.1c-1.2,0.4-1.9,0.9-3.9,2.5c-1.1,0.9-1.3,1-5,4.7
			c-0.8,0.8-4.6,4.6-6.1,6.4c0,0,0,0.1-0.1,0.1c-4.4,4.3-11.3,11.1-13.5,12.6c-2.9,1.8-4.1,2.4-5.3,2.5s-1.4-1-1.4-1.5
			c-0.1-1.7,1.4-3.2,1.4-3.2s1.1-0.8,2.1-1.5c1.1-0.7,3.9-3.1,5.6-4.5c1.7-1.5,5.3-4.7,7.8-7.2c2.5-2.4,4.4-4.9,5.1-5.9
			c0.6-1,0.9-2.2,0.9-2.8c0-0.5,0.1-1.8-1.7-2.3c-1.8-0.5-2.8-0.1-7.8,3c-3.1,2-7,5.8-10.6,10.4c-2.2,2.8-3.3,5.2-4.3,7.8
			c-0.7,1.8-0.9,1.6-1.9,2.2c-0.9,0.5-0.9,0.6-2,1c0,0-1.3,0.3-1.5,1.8c-0.2,1.4,1.7,1.6,1.7,1.6c1.2-0.1,1.2-0.1,1.2-0.1
			c0.3-0.1-0.2,0.8,0,2.1c-0.1,0-0.5,0.1-1.6,0.1c0,0-2.1-0.3-1.9-1.7l-0.1,0.2c-0.2,1.4,1.3,1.8,1.3,1.8c0.8,0.4,2.1,0.3,2.4,0.2
			c0.3,0.9,1.1,1.7,2.5,2c1.6,0.4,3-0.1,4.7-0.8c2-0.9,4.7-2.6,7.8-5.1c5-4.2,7.8-7.3,11-10.7c1.9-2.1,3.4-3.6,4.2-4.5
			c2.2-2.4,5.5-5.5,5.5-5.5s4.2-3.1-1.6,3.6c-0.8,0.9-2.2,2.6-3.6,4.4c-4.6,4.7-11,11.2-14.4,14.2c-3.5,3-6.7,4.7-8.5,5.4
			c-1.8,0.7-3.3,1-5,0.6c1.3,0.5,3.5,0.6,5.2-0.1c2.2-0.9,5.4-2.6,8.6-5.5c2.9-2.6,8.1-7.9,12.6-12.7c-1.2,1.6-2.3,3-2.8,3.8
			c-0.5,0.8-3.2,4.9-3.4,5.7c-0.2,0.8,0.4,1.4,0.8,1.5c1.7,0.4,2.6-1,2.6-1s1.7-2.7,2.7-4.3c1.8-3,5-6.8,7-9.1
			c0.9-1,4.5-4.6,6.9-6.5c2.3-1.8,5.1-3.8,5.8-4.4c0.7-0.5,1.4-0.5,1.4-0.5s-0.8,1.3-1.5,2.6h0c-3.5,2.9-9.3,7.8-11.6,10.6
			c-1.9,2.3-4.8,5.9-6.5,8.8c-0.9,1.6-2.4,4.2-2.4,4.2s-0.7,1.6-2.4,1.3c1.9,0.7,2.8-1.2,2.8-1.2s1.9-3.2,2.8-4.8
			c1.6-2.9,4.4-6.2,6.4-8.5c1.7-2,6.9-6.6,10.2-9.4c-0.2,0.4-0.5,0.7-0.7,1c-1,1.6-3.5,6.1-4.1,7.5c-0.6,1.4-1.5,4.5-1.7,5.5
			c-0.2,1.1,0.1,2.4,0.9,3.3c0.8,0.9,2.4,0.1,2.8-0.3c1-0.9,1.7-1.6,2.3-2.2c1.3-1.4,3.7-3.6,4.8-4.9c1.1-1.2,4.5-4.7,4.9-5
			c0.3-0.3,0.6-0.3,0.6-0.3s-0.5,1-1.5,2.7c-0.2,0.4-0.5,0.9-0.7,1.5c-1.8,1.8-3.9,4-5.1,5.2c-0.6,0.6-2.7,2.8-3.8,4
			c-0.8,0.9-2.1,1-2.9,0.8c1,0.3,2.1,0.7,3.3-0.6c1-1.1,3-3.1,3.9-4.1c0.5-0.6,2.5-2.6,4.3-4.5c-0.3,0.8-0.5,1.6-0.7,2.3
			c-0.5,1.6-0.3,2.9,0,3.7c0.3,0.7,1,2,2.4,2.3c1.4,0.3,3.2-1.3,4.8-2.8c1.5-1.4,1.8-1.5,4.6-4.7c2.9-3.3,4.9-5.5,5.7-6.5
			c0.9-1,1.4-1.6,1.4-1.6s0.4-0.2,0.2,0.2c-0.2,0.3-0.7,1.8-0.9,2.8c0,0.2-0.1,0.4-0.1,0.7c-2.4,2.6-6.5,7.2-7.2,7.9
			c-0.6,0.6-2.4,2.8-4.4,4.2c-0.7,0.5-2.2,1.5-3.9,1.2c1.3,0.6,3-0.2,4.2-0.9c2-1.3,4.8-4.3,5.4-5c0.3-0.4,3.9-4.4,5.9-6.6
			c0,1,0.3,2.1,0.8,3.1c0.8,1.4,2.1,2.1,3.7,2.1c2,0,3.4-0.5,5.1-1.6c1.1-0.7,1.8-1.3,3-2.3c0.6-0.5,0.4-0.2,0.8,0.6
			c0.2,0.3,0.3,0.5,0.4,0.7c-0.1,0.1-0.3,0.2-0.4,0.3c-0.1,0.1-0.3,0.2-0.5,0.3c-0.4,0.3-0.8,0.6-1.3,0.9c-0.4,0.3-0.9,0.6-1.3,0.8
			c-0.5,0.3-1,0.6-1.5,0.8c-0.8,0.4-2.4,1.2-4.1,0.5c1.2,0.8,3,0.3,4.3-0.2c0.1-0.1,0.3-0.1,0.4-0.2c0.1-0.1,0.3-0.1,0.4-0.2
			c0.4-0.2,0.9-0.5,1.4-0.8c0.2-0.1,0.5-0.3,0.7-0.4c0.9-0.6,1.7-1.2,2.2-1.6c0.3,0.2,0.7,0.4,1.3,0.7c1.5,0.6,3.9-0.6,5.4-1.2
			c1.5-0.7,3.8-2.2,6.5-4.3c3-2.3,5.6-4.7,7.7-6.5c1-0.9,9.7-8.8,9.7-8.8l0.1,0.2c0,0,0.2,0.6,0.4,1.1c-0.8,0.8-2.2,2.2-4.1,4.1
			c-0.2,0.2-0.5,0.5-0.7,0.7c-0.3,0.3-0.7,0.6-1,1c-0.2,0.2-0.4,0.4-0.6,0.6c-1.4,1.3-3,2.8-4.6,4.2c-0.3,0.3-0.7,0.6-1,0.8
			c-1,0.9-2.1,1.8-3.1,2.6c-0.6,0.5-1.1,0.9-1.7,1.3c-0.8,0.6-1.6,1.2-2.4,1.8c-0.3,0.2-0.6,0.4-0.9,0.6c-1.4,1-2.9,1.8-4.2,2.5
			c-0.8,0.4-2.4,1.2-4.1,0.7c1.2,0.8,3.1,0.3,4.4-0.3c0.6-0.3,1.3-0.7,1.9-1.1c0.6-0.3,1.2-0.8,1.8-1.2c1.3-0.9,2.7-1.9,4.1-2.9
			c0.9-0.7,1.7-1.4,2.6-2.1c2.1-1.7,4.1-3.5,5.9-5.2c0.3-0.3,0.6-0.6,0.9-0.8c0.9-0.8,1.8-1.7,2.6-2.4c0.2-0.2,0.5-0.5,0.7-0.7
			c1-1,1.9-1.8,2.6-2.5c0.1-0.2,0.3-0.3,0.4-0.4c0,0,0.1-0.1,0.1-0.1c0.1-0.1,0.2-0.2,0.3-0.3c0.1-0.1,0.2-0.2,0.3-0.3
			c0,0.1,0,0.2,0,0.2s-4.2,7.5-5.4,9.8c-1.1,2.3-1.3,3.4-1.1,4.4c0.2,1.1,1,2.2,2.7,2.4c1.7,0.1,3.1-0.9,7.3-3.7
			c4.2-2.7,8.6-5.9,16.1-8.7c7.4-2.8,11-3.8,20.1-5.8c9.1-1.9,18.3-2.6,21.7-3c2.7-0.3,6.6-0.1,7.7-0.2c1.1-0.1,1.2-0.6,1.9-1.4
			c0.7-0.8,1.5-1.5,1.5-1.8C276,18.7,274.1,18.7,272.2,18.6L272.2,18.6z M175.7,33.3c0.3-0.5,1-2.4,2.4-4.1c1.1-1.3,2.9-3.4,4.8-5.2
			c1.9-1.7,3.1-2.6,3.4-2.8c0.3-0.2,1.2-0.5,0.9,0.2c-0.3,0.6-1.8,2.8-2.8,3.8c-0.9,1-3.9,4.3-4.8,5.2c-0.8,0.9-2.2,2.5-2.2,2.5
			l-1.1,1.4c0,0-1,1.1-1.2,1C175,35.2,175.5,33.8,175.7,33.3L175.7,33.3z M93,47.6c0.4-0.5,1.3-2.1,3.4-4.3c1.4-1.5,3.8-4.2,6.2-6
			c2.4-1.8,3.5-2.2,3.8-2.4c0.3-0.2,1.8-0.5,1.3,0.2c-0.4,0.7-2.6,3-3.8,4.1c-1.2,1.1-4.8,4.6-5.9,5.5c-1.1,1-3.3,2.7-3.3,2.7
			l-1.2,1c0,0-1.2,0.9-1.3,0.8C92.2,48.9,92.6,48.1,93,47.6z M159.7,28.7c-0.1,0.4-0.2,0.7-0.4,1.1l-5.4,5.2c-0.8,1-2.2,2.4-3.1,3.3
			c-2.2,2.5-6.4,8.4-6.2,9c0.8-1.4,4.7-6.4,6.4-8.6c0.8-1,2.8-3.1,3.5-4c0.6-0.7,3.5-3.5,4.6-4.8c-0.8,1.8-2.3,3.5-3.2,4.6
			c-1.4,1.8-5.4,6.4-7.3,8.6c-1.9,2.2-4,4.6-4.9,5.2c-0.3,0.2-0.5,0.4-1.1,0.1c-0.3-0.7,0.4-1.9,0.9-2.7c0.8-1.6,3.4-5.5,5.2-7.6
			c1.8-2,5.4-5.8,6.8-7C157.4,29.6,158.9,28.2,159.7,28.7L159.7,28.7L159.7,28.7z"/>
		<path class="st0" d="M30.3,26.5c0,0,7.4-4.9,17.4-7.9c8.8-2.7,14.5-3,17.1-3.2c3-0.2,6.6,0.3,7,0.5c0.5,0.1,2,0.5,3.3,2.2
			c1.3,1.7,1.7,3.4,1.8,3.7c0.1,0.4,0.3,1-0.4,2.2s-1.7,2.9-3.9,4.8c-2.2,2-3.8,3.5-4.9,4.3c-1,0.8-1.4,1.2-1.4,1.2
			s-0.2,0.2,0.4,0.3c0.6,0.1,4.6,0.1,6.9,0.6c2.8,0.6,5.8,1.6,7.3,3.4c1.5,1.8,2.6,5.1,2.5,6.1c0,1-0.9,5.3-4.7,9.1
			c-3.8,3.8-9.1,7.3-10.8,8.4c-1.8,1.1-10.6,5.3-14.7,7.2c-4.7,2.1-14,5.3-16.1,6C35.1,76.2,22.6,80,16.9,81
			c-5.7,1-8.8,1.5-10.9,0.9c-2.1-0.6-4.6-2.8-5.2-3.5c-0.6-0.6-1.1-1.1-0.8-1.4s0.7-0.4,2.3,0.1c0,0,0.5,0.2,5.3,0.6
			c2.7,0.2,7.3,0.4,17.2-2.4c11.1-3.2,21.1-6,29.7-10.1c8.6-4.1,14.1-6.9,18.5-11c4.2-4,5.9-6,6.6-8.6c0,0,0.2-0.6,0.2-1.6
			c0.1-1.1-0.1-2.1-0.7-2.7c-0.9-0.9-2.8-2.2-6.1-2.6c-3.3-0.4-7.6-0.5-10.7-0.1c-3.6,0.4-8.4,1.2-11.8,2.9
			c-3.2,1.6-4.4,2.8-5.4,3.8c-1.3,1.3-1.3,1.3-3,3.6c-1.7,2.3-5.2,6.8-7.6,9.8c-1.7,2.2-7.4,7.9-7.5,8.4c-0.2,0.5-0.5,1.3-0.6,1.8
			c-0.1,0.5-0.4,1-0.7,1.2c-0.4,0.2-1.1,0.6-1.9,0s-1.3-1.7-1.4-2.4c-0.1-0.4-0.2-0.9,1-2.4c1.3-1.7,6.7-7.6,8.2-9.3
			c1.4-1.7,5.1-6.8,7-9.1c2.7-3.3,6.2-8.2,8.1-10.4c1.8-2.3,4-5.6,4.6-6.3c0.8-1,1.3-1.8,1.6-1.9c0.3,0,1,0,1.1,0.5
			c0.2,0.5,0.5,2.3,0.5,2.7c0,0.4,0.1,1-0.5,2c-0.6,1-1.6,2.2-1.9,2.6c-0.3,0.3-1.1,1.3-0.2,1.1c0.9-0.2,2.4-0.5,5.7-2
			c3.3-1.5,7.1-3.8,9.1-5.7c2.1-1.8,4.6-4,5.6-5.5s1.8-2.2,1.6-3.3c-0.2-0.8-0.7-1.3-2.2-1.5c-2.6-0.3-6.7-0.3-11.1,0.5
			c-4.4,0.8-10.5,2.2-15,4c-4.5,1.8-8.6,3.6-10.6,5.3c-2,1.8-3.2,3.4-3.9,4.1c-0.7,0.7-1.3,1.3-1.8,1c-0.5-0.3-1-0.6-0.7-2.3
			c0.3-1.8,0.7-3,0.9-3.7C29.7,26.9,30.3,26.6,30.3,26.5"/>
	</g>
</g>
<g>
	<g>
		<g>
			<g>
				<rect x="69.8" y="71.1" class="st0" width="0.8" height="5.4"/>
				<path class="st0" d="M76.2,76.5H77v-1.6c0-0.4,0-0.8,0.2-1c0.2-0.2,0.4-0.4,0.8-0.4c0.6,0,0.7,0.4,0.7,1.2v1.8h0.7v-2.1
					c0-0.4,0-0.8-0.2-1c-0.2-0.3-0.5-0.5-1-0.5c-0.6,0-0.9,0.2-1.2,0.7V73h-0.7L76.2,76.5L76.2,76.5z"/>
				<path class="st0" d="M87.2,74v-0.9c-0.2-0.2-0.5-0.2-0.8-0.2c-1.1,0-1.8,0.8-1.8,1.9s0.7,1.9,1.7,1.9c0.3,0,0.7-0.1,0.9-0.2
					v-0.9C87,75.8,86.7,76,86.3,76c-0.6,0-1-0.4-1-1.2s0.4-1.2,1-1.2C86.7,73.6,87,73.8,87.2,74L87.2,74z"/>
			</g>
			<path class="st0" d="M92.5,76.1c0,0.3,0.2,0.5,0.4,0.5s0.4-0.2,0.4-0.5s-0.2-0.5-0.4-0.5S92.5,75.9,92.5,76.1z"/>
		</g>
		<text transform="matrix(0.9709 0 0 1 107.1299 76.8928)" class="st0 st1 st2">A Print Solutions Company</text>
	</g>
	<g>
		<circle class="st3" cx="151.8" cy="63.1" r="3.2"/>
		<circle class="st4" cx="168.4" cy="63.1" r="3.2"/>
		<circle class="st5" cx="183.8" cy="63.1" r="3.2"/>
		<circle class="st6" cx="198.8" cy="63.1" r="3.2"/>
	</g>
	<rect x="69.2" y="68.9" class="st0" width="133" height="0.4"/>
</g>
</svg>
