<?xml version="1.0" encoding="UTF-8"?>
<svg id="Layer_2" data-name="Layer 2" xmlns="http://www.w3.org/2000/svg" width="547.37" height="547.37" viewBox="0 0 547.37 547.37">
  <defs>
    <style>
      .cls-1 {
        fill: #231f20;
      }

      .cls-1, .cls-2 {
        stroke-width: 0px;
      }

      .cls-2 {
        fill: #fff;
      }
    </style>
  </defs>
  <g id="Layer_5" data-name="Layer 5">
    <rect class="cls-1" x="0" y="0" width="547.37" height="547.37" rx="273.69" ry="273.69"/>
  </g>
  <g id="Layer_6" data-name="Layer 6">
    <path class="cls-2" d="M457.87,372.23s-81.23,25.08-73.65-29.72c-30,34.29-74.04,55.71-122.68,55.71l22.55-91.2c-18.06,28.4-42.74,51.2-71.33,66.9-28.59,15.7-61.07,24.3-94.73,24.3h-4.69c32.22-161.09,25.77-128.88,96.65-248.08l-45.1,184.98c68.99,1.82,132.6-79.58,161.09-185.97l-9.64,185.97c96.63,0,117.7-185.97,117.7-185.97,0,0-11.12,108.62-11.59,111.57-8.86,69.15-29.2,107.93,35.42,111.51Z"/>
  </g>
</svg>